{"accessors":[{"bufferView":2,"componentType":5126,"count":15104,"max":[1.1168500185012817,4.208600044250488,1.4260300397872925],"min":[-1.159890055656433,-1.6690599918365479,-2.6808300018310547],"type":"VEC3"},{"bufferView":2,"byteOffset":181248,"componentType":5126,"count":15104,"max":[0.9999146461486816,0.9999338388442993,0.9999919533729553],"min":[-0.9999539256095886,-0.9999552369117737,-0.9999762177467346],"type":"VEC3"},{"bufferView":1,"componentType":5126,"count":15104,"max":[0.9570199847221375,0.9814800024032593],"min":[0.03991999849677086,0.02800000086426735],"type":"VEC2"},{"bufferView":0,"componentType":5125,"count":85824,"type":"SCALAR"},{"bufferView":2,"byteOffset":362496,"componentType":5126,"count":577,"max":[0.5697399973869324,2.0097100734710693,5.817379951477051],"min":[-2.5383999347686768,-3.271699905395508,-1.0498600006103516],"type":"VEC3"},{"bufferView":2,"byteOffset":369420,"componentType":5126,"count":577,"max":[0.9998603463172913,0.999671220779419,0.9982513785362244],"min":[-0.9999376535415649,-0.9998050332069397,-0.9995027780532837],"type":"VEC3"},{"bufferView":1,"byteOffset":120832,"componentType":5126,"count":577,"max":[0.5287700295448303,0.5919700264930725],"min":[0.24988000094890594,0.5352799892425537],"type":"VEC2"},{"bufferView":0,"byteOffset":343296,"componentType":5125,"count":3264,"type":"SCALAR"},{"bufferView":2,"byteOffset":376344,"componentType":5126,"count":482,"max":[1,1,1],"min":[-1,-1,-1],"type":"VEC3"},{"bufferView":2,"byteOffset":382128,"componentType":5126,"count":482,"max":[1,1,1],"min":[-1,-1,-1],"type":"VEC3"},{"bufferView":1,"byteOffset":125448,"componentType":5126,"count":482,"max":[0.6958100199699402,0.8948000073432922],"min":[0.12666000425815582,0.32565000653266907],"type":"VEC2"},{"bufferView":0,"byteOffset":356352,"componentType":5125,"count":2880,"type":"SCALAR"},{"bufferView":2,"byteOffset":387912,"componentType":5126,"count":50,"max":[1.3015799522399902,1.3015799522399902,0],"min":[-1.3015799522399902,-1.3015799522399902,-0.013790000230073929],"type":"VEC3"},{"bufferView":2,"byteOffset":388512,"componentType":5126,"count":50,"max":[0.9574078321456909,0.9574078321456909,1],"min":[-0.9574078321456909,-0.9574078321456909,-1],"type":"VEC3"},{"bufferView":1,"byteOffset":129304,"componentType":5126,"count":50,"max":[0.840749979019165,0.8033499717712402],"min":[0.19752000272274017,0.16011999547481537],"type":"VEC2"},{"bufferView":0,"byteOffset":367872,"componentType":5125,"count":96,"type":"SCALAR"},{"bufferView":2,"byteOffset":389112,"componentType":5126,"count":482,"max":[1,1,1],"min":[-1,-1,-1],"type":"VEC3"},{"bufferView":2,"byteOffset":394896,"componentType":5126,"count":482,"max":[1,1,1],"min":[-1,-1,-1],"type":"VEC3"},{"bufferView":1,"byteOffset":129704,"componentType":5126,"count":482,"max":[0.6391699910163879,0.8428800106048584],"min":[0.18637999892234802,0.3900899887084961],"type":"VEC2"},{"bufferView":0,"byteOffset":368256,"componentType":5125,"count":2880,"type":"SCALAR"}],"asset":{"extras":{"author":"NicolasAlvarado (https://sketchfab.com/NicolasAlvarado)","license":"CC-BY-4.0 (http://creativecommons.org/licenses/by/4.0/)","source":"https://sketchfab.com/3d-models/low-poly-pig-5d20918db52e47cbad6c7194db202075","title":"Low Poly Pig"},"generator":"Sketchfab-12.67.0","version":"2.0"},"bufferViews":[{"buffer":0,"byteLength":379776,"name":"floatBufferViews","target":34963},{"buffer":0,"byteLength":133560,"byteOffset":379776,"byteStride":8,"name":"floatBufferViews","target":34962},{"buffer":0,"byteLength":400680,"byteOffset":513336,"byteStride":12,"name":"floatBufferViews","target":34962}],"buffers":[{"byteLength":914016,"uri":"data:application/octet-stream;base64,"}],"extensionsRequired":["KHR_materials_pbrSpecularGlossiness"],"extensionsUsed":["KHR_materials_pbrSpecularGlossiness"],"images":[{"uri":"data:application/octet-stream;base64,"},{"uri":"data:application/octet-stream;base64,"},{"uri":"data:application/octet-stream;base64,"}],"materials":[{"doubleSided":true,"extensions":{"KHR_materials_pbrSpecularGlossiness":{"diffuseFactor":[1,1,1,1],"diffuseTexture":{"index":0},"glossinessFactor":1,"specularFactor":[0,0,0]}},"name":"Material.001"},{"doubleSided":true,"extensions":{"KHR_materials_pbrSpecularGlossiness":{"diffuseFactor":[1,1,1,1],"diffuseTexture":{"index":1},"glossinessFactor":0.4,"specularFactor":[0.05,0.05,0.05]}},"name":"Material.002"},{"doubleSided":true,"extensions":{"KHR_materials_pbrSpecularGlossiness":{"diffuseFactor":[1,1,1,1],"diffuseTexture":{"index":2},"glossinessFactor":0.4,"specularFactor":[0.05,0.05,0.05]}},"name":"Material"}],"meshes":[{"name":"Cube_0","primitives":[{"attributes":{"NORMAL":1,"POSITION":0,"TEXCOORD_0":2},"indices":3,"material":2,"mode":4}]},{"name":"Plane_0","primitives":[{"attributes":{"NORMAL":5,"POSITION":4,"TEXCOORD_0":6},"indices":7,"material":2,"mode":4}]},{"name":"Sphere_0","primitives":[{"attributes":{"NORMAL":9,"POSITION":8,"TEXCOORD_0":10},"indices":11,"material":0,"mode":4}]},{"name":"Plane.001_0","primitives":[{"attributes":{"NORMAL":13,"POSITION":12,"TEXCOORD_0":14},"indices":15,"material":1,"mode":4}]},{"name":"Sphere.001_0","primitives":[{"attributes":{"NORMAL":17,"POSITION":16,"TEXCOORD_0":18},"indices":19,"material":0,"mode":4}]}],"nodes":[{"children":[1],"matrix":[1,0,0,0,0,2.220446049250313e-16,-1,0,0,1,2.220446049250313e-16,0,0,0,0,1],"name":"Sketchfab_model"},{"children":[2,4,6,8,10,12],"name":"Root"},{"children":[3],"matrix":[-0.29086000000000006,0.9551700000000001,-0.05519000000000001,0,-0.7711,-0.19988000000000003,0.6045200000000001,0,0.5663900000000001,0.21839000000000003,0.7946700000000001,0,0.71511,2.0567499999999996,9.42414,1],"name":"Lamp"},{"name":"Lamp"},{"children":[5],"matrix":[1,0,0,0,0,0.99982,0.018990000000000003,0,0,-0.018990000000000003,0.99982,0,0.70108,-0.9561900000000001,2.73829,1],"name":"Cube"},{"mesh":0,"name":"Cube_0"},{"children":[7],"matrix":[0.004200000000000001,0.13145,0.007730000000000002,0,0.12868,-0.002460000000000001,-0.028140000000000002,0,-0.027930000000000007,0.008450000000000001,-0.12847,0,0.63541,3.45417,2.2880000000000003,1],"name":"Plane"},{"mesh":1,"name":"Plane_0"},{"children":[9],"matrix":[0.29434000000000005,0,0,0,0,0,0.29434000000000005,0,0,-0.21465,0,0,0.25877,-1.6761500000000003,3.18286,1],"name":"Sphere"},{"mesh":2,"name":"Sphere_0"},{"children":[11],"matrix":[5.88863,0,0,0,0,5.88863,0,0,0,0,5.88863,0,0.5766700000000001,0.7325200000000001,0.12409000000000002,1],"name":"Plane.001"},{"mesh":3,"name":"Plane.001_0"},{"children":[13],"matrix":[0.29434000000000005,0,0,0,0,0,0.29434000000000005,0,0,-0.21465,0,0,1.1295899999999999,-1.6761500000000003,3.18286,1],"name":"Sphere.001"},{"mesh":4,"name":"Sphere.001_0"}],"samplers":[{"magFilter":9728,"minFilter":9728,"wrapS":33648,"wrapT":10497},{"magFilter":9729,"minFilter":9987,"wrapS":10497,"wrapT":10497}],"scene":0,"scenes":[{"name":"Sketchfab_Scene","nodes":[0]}],"textures":[{"sampler":0,"source":0},{"sampler":1,"source":1},{"sampler":1,"source":2}]}